<?xml version="1.0" encoding="UTF-8" standalone="no"?>
<!DOCTYPE svg PUBLIC "-//W3C//DTD SVG 1.1//EN"
 "http://www.w3.org/Graphics/SVG/1.1/DTD/svg11.dtd">
<!-- Generated by graphviz version 2.43.0 (0)
 -->
<!-- Title: sourcetree Pages: 1 -->
<svg width="3010pt" height="260pt"
 viewBox="0.00 0.00 3010.00 260.00" xmlns="http://www.w3.org/2000/svg" xmlns:xlink="http://www.w3.org/1999/xlink">
<g id="graph0" class="graph" transform="scale(1 1) rotate(0) translate(4 256)">
<title>sourcetree</title>
<polygon fill="white" stroke="transparent" points="-4,4 -4,-256 3006,-256 3006,4 -4,4"/>
<!-- MulleWebClient -->
<g id="node1" class="node">
<title>MulleWebClient</title>
<polygon fill="yellow" stroke="black" points="1931.5,-252 1800.5,-252 1800.5,-216 1931.5,-216 1931.5,-252"/>
<text text-anchor="middle" x="1866" y="-230.3" font-family="Times,serif" font-size="14.00">MulleWebClient</text>
</g>
<!-- MulleCurl -->
<g id="node4" class="node">
<title>MulleCurl</title>
<g id="a_node4"><a xlink:href="https://github.com/MulleWeb/MulleCurl" xlink:title="MulleCurl">
<polygon fill="lightgrey" stroke="black" points="1630,-180 1542,-180 1542,-144 1630,-144 1630,-180"/>
<text text-anchor="middle" x="1586" y="-158.3" font-family="Times,serif" font-size="14.00">MulleCurl</text>
</a>
</g>
</g>
<!-- MulleWebClient&#45;&gt;MulleCurl -->
<g id="edge19" class="edge">
<title>MulleWebClient&#45;&gt;MulleCurl</title>
<path fill="none" stroke="black" d="M1800.26,-219.32C1756.91,-209.93 1698.74,-196.62 1639.99,-180.46"/>
<polygon fill="black" stroke="black" points="1640.75,-177.04 1630.17,-177.73 1638.87,-183.78 1640.75,-177.04"/>
</g>
<!-- MulleObjCHTTPFoundation -->
<g id="node21" class="node">
<title>MulleObjCHTTPFoundation</title>
<g id="a_node21"><a xlink:href="https://github.com/MulleWeb/MulleObjCHTTPFoundation" xlink:title="MulleObjCHTTPFoundation">
<polygon fill="lightgrey" stroke="black" points="1860.5,-180 1647.5,-180 1647.5,-144 1860.5,-144 1860.5,-180"/>
<text text-anchor="middle" x="1754" y="-158.3" font-family="Times,serif" font-size="14.00">MulleObjCHTTPFoundation</text>
</a>
</g>
</g>
<!-- MulleWebClient&#45;&gt;MulleObjCHTTPFoundation -->
<g id="edge20" class="edge">
<title>MulleWebClient&#45;&gt;MulleObjCHTTPFoundation</title>
<path fill="none" stroke="black" d="M1838.6,-215.88C1824.09,-206.81 1806.08,-195.55 1790.41,-185.76"/>
<polygon fill="black" stroke="black" points="1791.84,-182.52 1781.5,-180.19 1788.13,-188.46 1791.84,-182.52"/>
</g>
<!-- MulleObjCInetFoundation -->
<g id="node22" class="node">
<title>MulleObjCInetFoundation</title>
<g id="a_node22"><a xlink:href="https://github.com/MulleWeb/MulleObjCInetFoundation" xlink:title="MulleObjCInetFoundation">
<polygon fill="lightgrey" stroke="black" points="2079.5,-180 1878.5,-180 1878.5,-144 2079.5,-144 2079.5,-180"/>
<text text-anchor="middle" x="1979" y="-158.3" font-family="Times,serif" font-size="14.00">MulleObjCInetFoundation</text>
</a>
</g>
</g>
<!-- MulleWebClient&#45;&gt;MulleObjCInetFoundation -->
<g id="edge21" class="edge">
<title>MulleWebClient&#45;&gt;MulleObjCInetFoundation</title>
<path fill="none" stroke="black" d="M1893.64,-215.88C1908.42,-206.72 1926.79,-195.34 1942.7,-185.48"/>
<polygon fill="black" stroke="black" points="1944.59,-188.43 1951.25,-180.19 1940.91,-182.48 1944.59,-188.43"/>
</g>
<!-- MulleObjCJSMNFoundation -->
<g id="node23" class="node">
<title>MulleObjCJSMNFoundation</title>
<g id="a_node23"><a xlink:href="https://github.com/MulleWeb/MulleObjCJSMNFoundation" xlink:title="MulleObjCJSMNFoundation">
<polygon fill="lightgrey" stroke="black" points="2312,-180 2098,-180 2098,-144 2312,-144 2312,-180"/>
<text text-anchor="middle" x="2205" y="-158.3" font-family="Times,serif" font-size="14.00">MulleObjCJSMNFoundation</text>
</a>
</g>
</g>
<!-- MulleWebClient&#45;&gt;MulleObjCJSMNFoundation -->
<g id="edge22" class="edge">
<title>MulleWebClient&#45;&gt;MulleObjCJSMNFoundation</title>
<path fill="none" stroke="black" d="M1931.76,-219.42C1983.17,-208.81 2055.25,-193.92 2112.48,-182.1"/>
<polygon fill="black" stroke="black" points="2113.53,-185.46 2122.62,-180.01 2112.12,-178.61 2113.53,-185.46"/>
</g>
<!-- curl -->
<g id="node2" class="node">
<title>curl</title>
<g id="a_node2"><a xlink:href="https://unknown.com/" xlink:title="curl">
<polygon fill="lightgrey" stroke="black" points="1409,-108 1355,-108 1355,-72 1409,-72 1409,-108"/>
<text text-anchor="middle" x="1382" y="-86.3" font-family="Times,serif" font-size="14.00">curl</text>
</a>
</g>
</g>
<!-- jsmn.h -->
<g id="node3" class="node">
<title>jsmn.h</title>
<g id="a_node3"><a xlink:href="https://raw.githubusercontent.com/mulle-nat//jsmn" xlink:title="jsmn.h">
<polygon fill="lightgrey" stroke="black" points="2237.5,-108 2172.5,-108 2172.5,-72 2237.5,-72 2237.5,-108"/>
<text text-anchor="middle" x="2205" y="-86.3" font-family="Times,serif" font-size="14.00">jsmn.h</text>
</a>
</g>
</g>
<!-- MulleCurl&#45;&gt;curl -->
<g id="edge1" class="edge">
<title>MulleCurl&#45;&gt;curl</title>
<path fill="none" stroke="black" d="M1541.92,-148.87C1509.84,-139.65 1465.29,-126.01 1418.69,-108.04"/>
<polygon fill="black" stroke="black" points="1419.94,-104.77 1409.35,-104.38 1417.39,-111.29 1419.94,-104.77"/>
</g>
<!-- MulleFoundationBase -->
<g id="node5" class="node">
<title>MulleFoundationBase</title>
<g id="a_node5"><a xlink:href="https://github.com/MulleFoundation/MulleFoundationBase" xlink:title="MulleFoundationBase">
<polygon fill="lightgrey" stroke="black" points="1599,-108 1427,-108 1427,-72 1599,-72 1599,-108"/>
<text text-anchor="middle" x="1513" y="-86.3" font-family="Times,serif" font-size="14.00">MulleFoundationBase</text>
</a>
</g>
</g>
<!-- MulleCurl&#45;&gt;MulleFoundationBase -->
<g id="edge2" class="edge">
<title>MulleCurl&#45;&gt;MulleFoundationBase</title>
<path fill="none" stroke="black" d="M1567.96,-143.7C1558.94,-135.05 1547.88,-124.45 1538.06,-115.03"/>
<polygon fill="black" stroke="black" points="1540.48,-112.5 1530.84,-108.1 1535.63,-117.55 1540.48,-112.5"/>
</g>
<!-- MulleZlib -->
<g id="node6" class="node">
<title>MulleZlib</title>
<g id="a_node6"><a xlink:href="https://github.com/MulleWeb/MulleZlib" xlink:title="MulleZlib">
<polygon fill="lightgrey" stroke="black" points="1702.5,-108 1617.5,-108 1617.5,-72 1702.5,-72 1702.5,-108"/>
<text text-anchor="middle" x="1660" y="-86.3" font-family="Times,serif" font-size="14.00">MulleZlib</text>
</a>
</g>
</g>
<!-- MulleCurl&#45;&gt;MulleZlib -->
<g id="edge3" class="edge">
<title>MulleCurl&#45;&gt;MulleZlib</title>
<path fill="none" stroke="black" d="M1604.29,-143.7C1613.43,-135.05 1624.64,-124.45 1634.6,-115.03"/>
<polygon fill="black" stroke="black" points="1637.06,-117.52 1641.92,-108.1 1632.25,-112.43 1637.06,-117.52"/>
</g>
<!-- openssl -->
<g id="node7" class="node">
<title>openssl</title>
<g id="a_node7"><a xlink:href="https://unknown.com/" xlink:title="openssl">
<polygon fill="lightgrey" stroke="black" points="1791.5,-108 1720.5,-108 1720.5,-72 1791.5,-72 1791.5,-108"/>
<text text-anchor="middle" x="1756" y="-86.3" font-family="Times,serif" font-size="14.00">openssl</text>
</a>
</g>
</g>
<!-- MulleCurl&#45;&gt;openssl -->
<g id="edge4" class="edge">
<title>MulleCurl&#45;&gt;openssl</title>
<path fill="none" stroke="black" d="M1627.59,-143.88C1652.78,-133.5 1684.92,-120.27 1710.75,-109.63"/>
<polygon fill="black" stroke="black" points="1712.39,-112.74 1720.31,-105.7 1709.73,-106.27 1712.39,-112.74"/>
</g>
<!-- MulleObjC -->
<g id="node8" class="node">
<title>MulleObjC</title>
<g id="a_node8"><a xlink:href="https://github.com/mulle-objc/MulleObjC" xlink:title="MulleObjC">
<polygon fill="lightgrey" stroke="black" points="92,-36 0,-36 0,0 92,0 92,-36"/>
<text text-anchor="middle" x="46" y="-14.3" font-family="Times,serif" font-size="14.00">MulleObjC</text>
</a>
</g>
</g>
<!-- MulleFoundationBase&#45;&gt;MulleObjC -->
<g id="edge5" class="edge">
<title>MulleFoundationBase&#45;&gt;MulleObjC</title>
<path fill="none" stroke="black" d="M1426.87,-73.01C1423.88,-72.64 1420.92,-72.3 1418,-72 1130.02,-42.47 406.36,-82.75 102.49,-35.91"/>
<polygon fill="black" stroke="black" points="102.72,-32.41 92.3,-34.28 101.62,-39.32 102.72,-32.41"/>
</g>
<!-- MulleObjCArchiverFoundation -->
<g id="node9" class="node">
<title>MulleObjCArchiverFoundation</title>
<g id="a_node9"><a xlink:href="https://github.com/MulleFoundation/MulleObjCArchiverFoundation@*" xlink:title="MulleObjCArchiverFoundation">
<polygon fill="lightgrey" stroke="black" points="343.5,-36 110.5,-36 110.5,0 343.5,0 343.5,-36"/>
<text text-anchor="middle" x="227" y="-14.3" font-family="Times,serif" font-size="14.00">MulleObjCArchiverFoundation</text>
</a>
</g>
</g>
<!-- MulleFoundationBase&#45;&gt;MulleObjCArchiverFoundation -->
<g id="edge6" class="edge">
<title>MulleFoundationBase&#45;&gt;MulleObjCArchiverFoundation</title>
<path fill="none" stroke="black" d="M1426.86,-73.03C1423.88,-72.65 1420.92,-72.31 1418,-72 949.92,-22.47 826.11,-75.23 353.89,-36.11"/>
<polygon fill="black" stroke="black" points="353.99,-32.6 343.73,-35.26 353.4,-39.58 353.99,-32.6"/>
</g>
<!-- MulleObjCContainerFoundation -->
<g id="node10" class="node">
<title>MulleObjCContainerFoundation</title>
<g id="a_node10"><a xlink:href="https://github.com/MulleFoundation/MulleObjCContainerFoundation@*" xlink:title="MulleObjCContainerFoundation">
<polygon fill="lightgrey" stroke="black" points="604.5,-36 361.5,-36 361.5,0 604.5,0 604.5,-36"/>
<text text-anchor="middle" x="483" y="-14.3" font-family="Times,serif" font-size="14.00">MulleObjCContainerFoundation</text>
</a>
</g>
</g>
<!-- MulleFoundationBase&#45;&gt;MulleObjCContainerFoundation -->
<g id="edge7" class="edge">
<title>MulleFoundationBase&#45;&gt;MulleObjCContainerFoundation</title>
<path fill="none" stroke="black" d="M1426.86,-73.07C1423.87,-72.68 1420.91,-72.32 1418,-72 1065.37,-32.74 971.5,-66.61 614.84,-36.12"/>
<polygon fill="black" stroke="black" points="615.02,-32.62 604.75,-35.24 614.42,-39.59 615.02,-32.62"/>
</g>
<!-- MulleObjCKVCFoundation -->
<g id="node11" class="node">
<title>MulleObjCKVCFoundation</title>
<g id="a_node11"><a xlink:href="https://github.com/MulleFoundation/MulleObjCKVCFoundation@*" xlink:title="MulleObjCKVCFoundation">
<polygon fill="lightgrey" stroke="black" points="825.5,-36 622.5,-36 622.5,0 825.5,0 825.5,-36"/>
<text text-anchor="middle" x="724" y="-14.3" font-family="Times,serif" font-size="14.00">MulleObjCKVCFoundation</text>
</a>
</g>
</g>
<!-- MulleFoundationBase&#45;&gt;MulleObjCKVCFoundation -->
<g id="edge8" class="edge">
<title>MulleFoundationBase&#45;&gt;MulleObjCKVCFoundation</title>
<path fill="none" stroke="black" d="M1426.85,-73.14C1423.87,-72.73 1420.91,-72.35 1418,-72 1163.52,-41.48 1094.86,-63.11 835.67,-36"/>
<polygon fill="black" stroke="black" points="835.89,-32.51 825.58,-34.93 835.15,-39.47 835.89,-32.51"/>
</g>
<!-- MulleObjCLockFoundation -->
<g id="node12" class="node">
<title>MulleObjCLockFoundation</title>
<g id="a_node12"><a xlink:href="https://github.com/MulleFoundation/MulleObjCLockFoundation@*" xlink:title="MulleObjCLockFoundation">
<polygon fill="lightgrey" stroke="black" points="1050,-36 844,-36 844,0 1050,0 1050,-36"/>
<text text-anchor="middle" x="947" y="-14.3" font-family="Times,serif" font-size="14.00">MulleObjCLockFoundation</text>
</a>
</g>
</g>
<!-- MulleFoundationBase&#45;&gt;MulleObjCLockFoundation -->
<g id="edge9" class="edge">
<title>MulleFoundationBase&#45;&gt;MulleObjCLockFoundation</title>
<path fill="none" stroke="black" d="M1426.83,-73.28C1423.86,-72.83 1420.9,-72.4 1418,-72 1262.44,-50.31 1219.83,-55.8 1060.29,-36.12"/>
<polygon fill="black" stroke="black" points="1060.47,-32.62 1050.11,-34.85 1059.6,-39.56 1060.47,-32.62"/>
</g>
<!-- MulleObjCMathFoundation -->
<g id="node13" class="node">
<title>MulleObjCMathFoundation</title>
<g id="a_node13"><a xlink:href="https://github.com/MulleFoundation/MulleObjCMathFoundation@*" xlink:title="MulleObjCMathFoundation">
<polygon fill="lightgrey" stroke="black" points="1278,-36 1068,-36 1068,0 1278,0 1278,-36"/>
<text text-anchor="middle" x="1173" y="-14.3" font-family="Times,serif" font-size="14.00">MulleObjCMathFoundation</text>
</a>
</g>
</g>
<!-- MulleFoundationBase&#45;&gt;MulleObjCMathFoundation -->
<g id="edge10" class="edge">
<title>MulleFoundationBase&#45;&gt;MulleObjCMathFoundation</title>
<path fill="none" stroke="black" d="M1430.26,-71.97C1380.6,-61.74 1317.3,-48.71 1265.92,-38.13"/>
<polygon fill="black" stroke="black" points="1266.31,-34.64 1255.81,-36.05 1264.9,-41.49 1266.31,-34.64"/>
</g>
<!-- MulleObjCPlistFoundation -->
<g id="node14" class="node">
<title>MulleObjCPlistFoundation</title>
<g id="a_node14"><a xlink:href="https://github.com/MulleFoundation/MulleObjCPlistFoundation@*" xlink:title="MulleObjCPlistFoundation">
<polygon fill="lightgrey" stroke="black" points="1501.5,-36 1296.5,-36 1296.5,0 1501.5,0 1501.5,-36"/>
<text text-anchor="middle" x="1399" y="-14.3" font-family="Times,serif" font-size="14.00">MulleObjCPlistFoundation</text>
</a>
</g>
</g>
<!-- MulleFoundationBase&#45;&gt;MulleObjCPlistFoundation -->
<g id="edge11" class="edge">
<title>MulleFoundationBase&#45;&gt;MulleObjCPlistFoundation</title>
<path fill="none" stroke="black" d="M1485.11,-71.88C1470.21,-62.72 1451.67,-51.34 1435.62,-41.48"/>
<polygon fill="black" stroke="black" points="1437.35,-38.44 1426.99,-36.19 1433.69,-44.41 1437.35,-38.44"/>
</g>
<!-- MulleObjCRegexFoundation -->
<g id="node15" class="node">
<title>MulleObjCRegexFoundation</title>
<g id="a_node15"><a xlink:href="https://github.com/MulleFoundation/MulleObjCRegexFoundation" xlink:title="MulleObjCRegexFoundation">
<polygon fill="lightgrey" stroke="black" points="1736.5,-36 1519.5,-36 1519.5,0 1736.5,0 1736.5,-36"/>
<text text-anchor="middle" x="1628" y="-14.3" font-family="Times,serif" font-size="14.00">MulleObjCRegexFoundation</text>
</a>
</g>
</g>
<!-- MulleFoundationBase&#45;&gt;MulleObjCRegexFoundation -->
<g id="edge12" class="edge">
<title>MulleFoundationBase&#45;&gt;MulleObjCRegexFoundation</title>
<path fill="none" stroke="black" d="M1541.13,-71.88C1556.17,-62.72 1574.87,-51.34 1591.06,-41.48"/>
<polygon fill="black" stroke="black" points="1593.04,-44.38 1599.76,-36.19 1589.4,-38.4 1593.04,-44.38"/>
</g>
<!-- MulleObjCStandardFoundation -->
<g id="node16" class="node">
<title>MulleObjCStandardFoundation</title>
<g id="a_node16"><a xlink:href="https://github.com/MulleFoundation/MulleObjCStandardFoundation@*" xlink:title="MulleObjCStandardFoundation">
<polygon fill="lightgrey" stroke="black" points="1993.5,-36 1754.5,-36 1754.5,0 1993.5,0 1993.5,-36"/>
<text text-anchor="middle" x="1874" y="-14.3" font-family="Times,serif" font-size="14.00">MulleObjCStandardFoundation</text>
</a>
</g>
</g>
<!-- MulleFoundationBase&#45;&gt;MulleObjCStandardFoundation -->
<g id="edge13" class="edge">
<title>MulleFoundationBase&#45;&gt;MulleObjCStandardFoundation</title>
<path fill="none" stroke="black" d="M1599.01,-72.32C1652.33,-61.98 1720.96,-48.68 1776.32,-37.94"/>
<polygon fill="black" stroke="black" points="1776.99,-41.38 1786.14,-36.04 1775.66,-34.5 1776.99,-41.38"/>
</g>
<!-- MulleObjCTimeFoundation -->
<g id="node17" class="node">
<title>MulleObjCTimeFoundation</title>
<g id="a_node17"><a xlink:href="https://github.com/MulleFoundation/MulleObjCTimeFoundation@*" xlink:title="MulleObjCTimeFoundation">
<polygon fill="lightgrey" stroke="black" points="2220,-36 2012,-36 2012,0 2220,0 2220,-36"/>
<text text-anchor="middle" x="2116" y="-14.3" font-family="Times,serif" font-size="14.00">MulleObjCTimeFoundation</text>
</a>
</g>
</g>
<!-- MulleFoundationBase&#45;&gt;MulleObjCTimeFoundation -->
<g id="edge14" class="edge">
<title>MulleFoundationBase&#45;&gt;MulleObjCTimeFoundation</title>
<path fill="none" stroke="black" d="M1599.16,-73.25C1602.14,-72.81 1605.09,-72.39 1608,-72 1782.26,-48.49 1827.42,-56.98 2002,-36 2002.1,-35.99 2002.2,-35.98 2002.31,-35.96"/>
<polygon fill="black" stroke="black" points="2002.48,-39.47 2011.97,-34.76 2001.61,-32.52 2002.48,-39.47"/>
</g>
<!-- MulleObjCUnicodeFoundation -->
<g id="node18" class="node">
<title>MulleObjCUnicodeFoundation</title>
<g id="a_node18"><a xlink:href="https://github.com/MulleFoundation/MulleObjCUnicodeFoundation@*" xlink:title="MulleObjCUnicodeFoundation">
<polygon fill="lightgrey" stroke="black" points="2469.5,-36 2238.5,-36 2238.5,0 2469.5,0 2469.5,-36"/>
<text text-anchor="middle" x="2354" y="-14.3" font-family="Times,serif" font-size="14.00">MulleObjCUnicodeFoundation</text>
</a>
</g>
</g>
<!-- MulleFoundationBase&#45;&gt;MulleObjCUnicodeFoundation -->
<g id="edge15" class="edge">
<title>MulleFoundationBase&#45;&gt;MulleObjCUnicodeFoundation</title>
<path fill="none" stroke="black" d="M1599.15,-73.12C1602.13,-72.72 1605.09,-72.34 1608,-72 1879.21,-39.99 1952.05,-62.09 2227.94,-36.05"/>
<polygon fill="black" stroke="black" points="2228.64,-39.5 2238.26,-35.06 2227.97,-32.53 2228.64,-39.5"/>
</g>
<!-- MulleObjCUUIDFoundation -->
<g id="node19" class="node">
<title>MulleObjCUUIDFoundation</title>
<g id="a_node19"><a xlink:href="https://github.com/MulleFoundation/MulleObjCUUIDFoundation@*" xlink:title="MulleObjCUUIDFoundation">
<polygon fill="lightgrey" stroke="black" points="2700.5,-36 2487.5,-36 2487.5,0 2700.5,0 2700.5,-36"/>
<text text-anchor="middle" x="2594" y="-14.3" font-family="Times,serif" font-size="14.00">MulleObjCUUIDFoundation</text>
</a>
</g>
</g>
<!-- MulleFoundationBase&#45;&gt;MulleObjCUUIDFoundation -->
<g id="edge16" class="edge">
<title>MulleFoundationBase&#45;&gt;MulleObjCUUIDFoundation</title>
<path fill="none" stroke="black" d="M1599.14,-73.06C1602.13,-72.67 1605.09,-72.32 1608,-72 1989.84,-30.14 2091.54,-71.66 2477.19,-36.11"/>
<polygon fill="black" stroke="black" points="2477.6,-39.59 2487.23,-35.17 2476.95,-32.62 2477.6,-39.59"/>
</g>
<!-- MulleObjCValueFoundation -->
<g id="node20" class="node">
<title>MulleObjCValueFoundation</title>
<g id="a_node20"><a xlink:href="https://github.com/MulleFoundation/MulleObjCValueFoundation@*" xlink:title="MulleObjCValueFoundation">
<polygon fill="lightgrey" stroke="black" points="2930,-36 2718,-36 2718,0 2930,0 2930,-36"/>
<text text-anchor="middle" x="2824" y="-14.3" font-family="Times,serif" font-size="14.00">MulleObjCValueFoundation</text>
</a>
</g>
</g>
<!-- MulleFoundationBase&#45;&gt;MulleObjCValueFoundation -->
<g id="edge17" class="edge">
<title>MulleFoundationBase&#45;&gt;MulleObjCValueFoundation</title>
<path fill="none" stroke="black" d="M1599.14,-73.03C1602.12,-72.65 1605.08,-72.31 1608,-72 2092.02,-21.06 2220.21,-79.4 2707.74,-36.15"/>
<polygon fill="black" stroke="black" points="2708.21,-39.62 2717.86,-35.24 2707.58,-32.65 2708.21,-39.62"/>
</g>
<!-- zlib -->
<g id="node24" class="node">
<title>zlib</title>
<g id="a_node24"><a xlink:href="https://github.com/madler/zlib" xlink:title="zlib">
<polygon fill="lightgrey" stroke="black" points="3002,-36 2948,-36 2948,0 3002,0 3002,-36"/>
<text text-anchor="middle" x="2975" y="-14.3" font-family="Times,serif" font-size="14.00">zlib</text>
</a>
</g>
</g>
<!-- MulleZlib&#45;&gt;zlib -->
<g id="edge23" class="edge">
<title>MulleZlib&#45;&gt;zlib</title>
<path fill="none" stroke="black" d="M1702.62,-73.79C1705.43,-73.1 1708.24,-72.49 1711,-72 1976.66,-24.88 2657.31,-97.88 2938.09,-35.48"/>
<polygon fill="black" stroke="black" points="2938.96,-38.88 2947.91,-33.21 2937.38,-32.06 2938.96,-38.88"/>
</g>
<!-- MulleObjCJSMNFoundation&#45;&gt;jsmn.h -->
<g id="edge18" class="edge">
<title>MulleObjCJSMNFoundation&#45;&gt;jsmn.h</title>
<path fill="none" stroke="black" d="M2205,-143.7C2205,-135.98 2205,-126.71 2205,-118.11"/>
<polygon fill="black" stroke="black" points="2208.5,-118.1 2205,-108.1 2201.5,-118.1 2208.5,-118.1"/>
</g>
</g>
</svg>
