<?xml version="1.0" encoding="UTF-8" standalone="no"?>
<!DOCTYPE svg PUBLIC "-//W3C//DTD SVG 1.1//EN"
 "http://www.w3.org/Graphics/SVG/1.1/DTD/svg11.dtd">
<!-- Generated by graphviz version 2.43.0 (0)
 -->
<!-- Title: sourcetree Pages: 1 -->
<svg width="2775pt" height="260pt"
 viewBox="0.00 0.00 2775.00 260.00" xmlns="http://www.w3.org/2000/svg" xmlns:xlink="http://www.w3.org/1999/xlink">
<g id="graph0" class="graph" transform="scale(1 1) rotate(0) translate(4 256)">
<title>sourcetree</title>
<polygon fill="white" stroke="transparent" points="-4,4 -4,-256 2771,-256 2771,4 -4,4"/>
<!-- MulleWebClient -->
<g id="node1" class="node">
<title>MulleWebClient</title>
<polygon fill="yellow" stroke="black" points="1817.5,-252 1686.5,-252 1686.5,-216 1817.5,-216 1817.5,-252"/>
<text text-anchor="middle" x="1752" y="-230.3" font-family="Times,serif" font-size="14.00">MulleWebClient</text>
</g>
<!-- MulleCurl -->
<g id="node4" class="node">
<title>MulleCurl</title>
<g id="a_node4"><a xlink:href="https://github.com/MulleWeb/MulleCurl" xlink:title="MulleCurl">
<polygon fill="lightgrey" stroke="black" points="1516,-180 1428,-180 1428,-144 1516,-144 1516,-180"/>
<text text-anchor="middle" x="1472" y="-158.3" font-family="Times,serif" font-size="14.00">MulleCurl</text>
</a>
</g>
</g>
<!-- MulleWebClient&#45;&gt;MulleCurl -->
<g id="edge18" class="edge">
<title>MulleWebClient&#45;&gt;MulleCurl</title>
<path fill="none" stroke="black" d="M1686.26,-219.32C1642.91,-209.93 1584.74,-196.62 1525.99,-180.46"/>
<polygon fill="black" stroke="black" points="1526.75,-177.04 1516.17,-177.73 1524.87,-183.78 1526.75,-177.04"/>
</g>
<!-- MulleObjCHTTPFoundation -->
<g id="node20" class="node">
<title>MulleObjCHTTPFoundation</title>
<g id="a_node20"><a xlink:href="https://github.com/MulleWeb/MulleObjCHTTPFoundation" xlink:title="MulleObjCHTTPFoundation">
<polygon fill="lightgrey" stroke="black" points="1746.5,-180 1533.5,-180 1533.5,-144 1746.5,-144 1746.5,-180"/>
<text text-anchor="middle" x="1640" y="-158.3" font-family="Times,serif" font-size="14.00">MulleObjCHTTPFoundation</text>
</a>
</g>
</g>
<!-- MulleWebClient&#45;&gt;MulleObjCHTTPFoundation -->
<g id="edge19" class="edge">
<title>MulleWebClient&#45;&gt;MulleObjCHTTPFoundation</title>
<path fill="none" stroke="black" d="M1724.6,-215.88C1710.09,-206.81 1692.08,-195.55 1676.41,-185.76"/>
<polygon fill="black" stroke="black" points="1677.84,-182.52 1667.5,-180.19 1674.13,-188.46 1677.84,-182.52"/>
</g>
<!-- MulleObjCInetFoundation -->
<g id="node21" class="node">
<title>MulleObjCInetFoundation</title>
<g id="a_node21"><a xlink:href="https://github.com/MulleWeb/MulleObjCInetFoundation" xlink:title="MulleObjCInetFoundation">
<polygon fill="lightgrey" stroke="black" points="1965.5,-180 1764.5,-180 1764.5,-144 1965.5,-144 1965.5,-180"/>
<text text-anchor="middle" x="1865" y="-158.3" font-family="Times,serif" font-size="14.00">MulleObjCInetFoundation</text>
</a>
</g>
</g>
<!-- MulleWebClient&#45;&gt;MulleObjCInetFoundation -->
<g id="edge20" class="edge">
<title>MulleWebClient&#45;&gt;MulleObjCInetFoundation</title>
<path fill="none" stroke="black" d="M1779.64,-215.88C1794.42,-206.72 1812.79,-195.34 1828.7,-185.48"/>
<polygon fill="black" stroke="black" points="1830.59,-188.43 1837.25,-180.19 1826.91,-182.48 1830.59,-188.43"/>
</g>
<!-- MulleObjCJSMNFoundation -->
<g id="node22" class="node">
<title>MulleObjCJSMNFoundation</title>
<g id="a_node22"><a xlink:href="https://github.com/MulleWeb/MulleObjCJSMNFoundation" xlink:title="MulleObjCJSMNFoundation">
<polygon fill="lightgrey" stroke="black" points="2198,-180 1984,-180 1984,-144 2198,-144 2198,-180"/>
<text text-anchor="middle" x="2091" y="-158.3" font-family="Times,serif" font-size="14.00">MulleObjCJSMNFoundation</text>
</a>
</g>
</g>
<!-- MulleWebClient&#45;&gt;MulleObjCJSMNFoundation -->
<g id="edge21" class="edge">
<title>MulleWebClient&#45;&gt;MulleObjCJSMNFoundation</title>
<path fill="none" stroke="black" d="M1817.76,-219.42C1869.17,-208.81 1941.25,-193.92 1998.48,-182.1"/>
<polygon fill="black" stroke="black" points="1999.53,-185.46 2008.62,-180.01 1998.12,-178.61 1999.53,-185.46"/>
</g>
<!-- curl -->
<g id="node2" class="node">
<title>curl</title>
<g id="a_node2"><a xlink:href="https://unknown.com/" xlink:title="curl">
<polygon fill="lightgrey" stroke="black" points="1295,-108 1241,-108 1241,-72 1295,-72 1295,-108"/>
<text text-anchor="middle" x="1268" y="-86.3" font-family="Times,serif" font-size="14.00">curl</text>
</a>
</g>
</g>
<!-- jsmn.h -->
<g id="node3" class="node">
<title>jsmn.h</title>
<g id="a_node3"><a xlink:href="https://raw.githubusercontent.com/mulle-nat//jsmn" xlink:title="jsmn.h">
<polygon fill="lightgrey" stroke="black" points="2123.5,-108 2058.5,-108 2058.5,-72 2123.5,-72 2123.5,-108"/>
<text text-anchor="middle" x="2091" y="-86.3" font-family="Times,serif" font-size="14.00">jsmn.h</text>
</a>
</g>
</g>
<!-- MulleCurl&#45;&gt;curl -->
<g id="edge1" class="edge">
<title>MulleCurl&#45;&gt;curl</title>
<path fill="none" stroke="black" d="M1427.92,-148.87C1395.84,-139.65 1351.29,-126.01 1304.69,-108.04"/>
<polygon fill="black" stroke="black" points="1305.94,-104.77 1295.35,-104.38 1303.39,-111.29 1305.94,-104.77"/>
</g>
<!-- MulleFoundationBase -->
<g id="node5" class="node">
<title>MulleFoundationBase</title>
<g id="a_node5"><a xlink:href="https://github.com/MulleFoundation/MulleFoundationBase" xlink:title="MulleFoundationBase">
<polygon fill="lightgrey" stroke="black" points="1485,-108 1313,-108 1313,-72 1485,-72 1485,-108"/>
<text text-anchor="middle" x="1399" y="-86.3" font-family="Times,serif" font-size="14.00">MulleFoundationBase</text>
</a>
</g>
</g>
<!-- MulleCurl&#45;&gt;MulleFoundationBase -->
<g id="edge2" class="edge">
<title>MulleCurl&#45;&gt;MulleFoundationBase</title>
<path fill="none" stroke="black" d="M1453.96,-143.7C1444.94,-135.05 1433.88,-124.45 1424.06,-115.03"/>
<polygon fill="black" stroke="black" points="1426.48,-112.5 1416.84,-108.1 1421.63,-117.55 1426.48,-112.5"/>
</g>
<!-- MulleZlib -->
<g id="node6" class="node">
<title>MulleZlib</title>
<g id="a_node6"><a xlink:href="https://github.com/MulleWeb/MulleZlib" xlink:title="MulleZlib">
<polygon fill="lightgrey" stroke="black" points="1588.5,-108 1503.5,-108 1503.5,-72 1588.5,-72 1588.5,-108"/>
<text text-anchor="middle" x="1546" y="-86.3" font-family="Times,serif" font-size="14.00">MulleZlib</text>
</a>
</g>
</g>
<!-- MulleCurl&#45;&gt;MulleZlib -->
<g id="edge3" class="edge">
<title>MulleCurl&#45;&gt;MulleZlib</title>
<path fill="none" stroke="black" d="M1490.29,-143.7C1499.43,-135.05 1510.64,-124.45 1520.6,-115.03"/>
<polygon fill="black" stroke="black" points="1523.06,-117.52 1527.92,-108.1 1518.25,-112.43 1523.06,-117.52"/>
</g>
<!-- openssl -->
<g id="node7" class="node">
<title>openssl</title>
<g id="a_node7"><a xlink:href="https://unknown.com/" xlink:title="openssl">
<polygon fill="lightgrey" stroke="black" points="1677.5,-108 1606.5,-108 1606.5,-72 1677.5,-72 1677.5,-108"/>
<text text-anchor="middle" x="1642" y="-86.3" font-family="Times,serif" font-size="14.00">openssl</text>
</a>
</g>
</g>
<!-- MulleCurl&#45;&gt;openssl -->
<g id="edge4" class="edge">
<title>MulleCurl&#45;&gt;openssl</title>
<path fill="none" stroke="black" d="M1513.59,-143.88C1538.78,-133.5 1570.92,-120.27 1596.75,-109.63"/>
<polygon fill="black" stroke="black" points="1598.39,-112.74 1606.31,-105.7 1595.73,-106.27 1598.39,-112.74"/>
</g>
<!-- MulleObjC -->
<g id="node8" class="node">
<title>MulleObjC</title>
<g id="a_node8"><a xlink:href="https://github.com/mulle-objc/MulleObjC" xlink:title="MulleObjC">
<polygon fill="lightgrey" stroke="black" points="92,-36 0,-36 0,0 92,0 92,-36"/>
<text text-anchor="middle" x="46" y="-14.3" font-family="Times,serif" font-size="14.00">MulleObjC</text>
</a>
</g>
</g>
<!-- MulleFoundationBase&#45;&gt;MulleObjC -->
<g id="edge5" class="edge">
<title>MulleFoundationBase&#45;&gt;MulleObjC</title>
<path fill="none" stroke="black" d="M1312.87,-73.02C1309.88,-72.64 1306.92,-72.3 1304,-72 1041.23,-44.71 381.2,-79.03 102.46,-35.91"/>
<polygon fill="black" stroke="black" points="102.73,-32.41 92.3,-34.27 101.62,-39.32 102.73,-32.41"/>
</g>
<!-- MulleObjCArchiverFoundation -->
<g id="node9" class="node">
<title>MulleObjCArchiverFoundation</title>
<g id="a_node9"><a xlink:href="https://github.com/MulleFoundation/MulleObjCArchiverFoundation" xlink:title="MulleObjCArchiverFoundation">
<polygon fill="lightgrey" stroke="black" points="343.5,-36 110.5,-36 110.5,0 343.5,0 343.5,-36"/>
<text text-anchor="middle" x="227" y="-14.3" font-family="Times,serif" font-size="14.00">MulleObjCArchiverFoundation</text>
</a>
</g>
</g>
<!-- MulleFoundationBase&#45;&gt;MulleObjCArchiverFoundation -->
<g id="edge6" class="edge">
<title>MulleFoundationBase&#45;&gt;MulleObjCArchiverFoundation</title>
<path fill="none" stroke="black" d="M1312.86,-73.05C1309.88,-72.67 1306.92,-72.31 1304,-72 886.32,-26.95 775.56,-71.86 353.75,-36.1"/>
<polygon fill="black" stroke="black" points="353.99,-32.61 343.73,-35.24 353.4,-39.58 353.99,-32.61"/>
</g>
<!-- MulleObjCContainerFoundation -->
<g id="node10" class="node">
<title>MulleObjCContainerFoundation</title>
<g id="a_node10"><a xlink:href="https://github.com/MulleFoundation/MulleObjCContainerFoundation" xlink:title="MulleObjCContainerFoundation">
<polygon fill="lightgrey" stroke="black" points="604.5,-36 361.5,-36 361.5,0 604.5,0 604.5,-36"/>
<text text-anchor="middle" x="483" y="-14.3" font-family="Times,serif" font-size="14.00">MulleObjCContainerFoundation</text>
</a>
</g>
</g>
<!-- MulleFoundationBase&#45;&gt;MulleObjCContainerFoundation -->
<g id="edge7" class="edge">
<title>MulleFoundationBase&#45;&gt;MulleObjCContainerFoundation</title>
<path fill="none" stroke="black" d="M1312.86,-73.1C1309.87,-72.7 1306.91,-72.34 1304,-72 1001.77,-37.22 920.98,-63.38 614.81,-36.12"/>
<polygon fill="black" stroke="black" points="615.03,-32.63 604.76,-35.21 614.4,-39.6 615.03,-32.63"/>
</g>
<!-- MulleObjCKVCFoundation -->
<g id="node11" class="node">
<title>MulleObjCKVCFoundation</title>
<g id="a_node11"><a xlink:href="https://github.com/MulleFoundation/MulleObjCKVCFoundation" xlink:title="MulleObjCKVCFoundation">
<polygon fill="lightgrey" stroke="black" points="825.5,-36 622.5,-36 622.5,0 825.5,0 825.5,-36"/>
<text text-anchor="middle" x="724" y="-14.3" font-family="Times,serif" font-size="14.00">MulleObjCKVCFoundation</text>
</a>
</g>
</g>
<!-- MulleFoundationBase&#45;&gt;MulleObjCKVCFoundation -->
<g id="edge8" class="edge">
<title>MulleFoundationBase&#45;&gt;MulleObjCKVCFoundation</title>
<path fill="none" stroke="black" d="M1312.84,-73.19C1309.86,-72.77 1306.91,-72.37 1304,-72 1099.86,-45.97 1044.42,-59.4 835.64,-36.01"/>
<polygon fill="black" stroke="black" points="835.91,-32.52 825.58,-34.87 835.12,-39.48 835.91,-32.52"/>
</g>
<!-- MulleObjCLockFoundation -->
<g id="node12" class="node">
<title>MulleObjCLockFoundation</title>
<g id="a_node12"><a xlink:href="https://github.com/MulleFoundation/MulleObjCLockFoundation" xlink:title="MulleObjCLockFoundation">
<polygon fill="lightgrey" stroke="black" points="1050,-36 844,-36 844,0 1050,0 1050,-36"/>
<text text-anchor="middle" x="947" y="-14.3" font-family="Times,serif" font-size="14.00">MulleObjCLockFoundation</text>
</a>
</g>
</g>
<!-- MulleFoundationBase&#45;&gt;MulleObjCLockFoundation -->
<g id="edge9" class="edge">
<title>MulleFoundationBase&#45;&gt;MulleObjCLockFoundation</title>
<path fill="none" stroke="black" d="M1312.81,-73.46C1309.84,-72.96 1306.89,-72.47 1304,-72 1198.56,-54.82 1169.53,-52.39 1060.25,-36.18"/>
<polygon fill="black" stroke="black" points="1060.54,-32.68 1050.13,-34.67 1059.51,-39.61 1060.54,-32.68"/>
</g>
<!-- MulleObjCMathFoundation -->
<g id="node13" class="node">
<title>MulleObjCMathFoundation</title>
<g id="a_node13"><a xlink:href="https://github.com/MulleFoundation/MulleObjCMathFoundation" xlink:title="MulleObjCMathFoundation">
<polygon fill="lightgrey" stroke="black" points="1278,-36 1068,-36 1068,0 1278,0 1278,-36"/>
<text text-anchor="middle" x="1173" y="-14.3" font-family="Times,serif" font-size="14.00">MulleObjCMathFoundation</text>
</a>
</g>
</g>
<!-- MulleFoundationBase&#45;&gt;MulleObjCMathFoundation -->
<g id="edge10" class="edge">
<title>MulleFoundationBase&#45;&gt;MulleObjCMathFoundation</title>
<path fill="none" stroke="black" d="M1344,-71.97C1312.01,-62.06 1271.52,-49.51 1237.96,-39.12"/>
<polygon fill="black" stroke="black" points="1238.83,-35.73 1228.24,-36.11 1236.76,-42.41 1238.83,-35.73"/>
</g>
<!-- MulleObjCPlistFoundation -->
<g id="node14" class="node">
<title>MulleObjCPlistFoundation</title>
<g id="a_node14"><a xlink:href="https://github.com/MulleFoundation/MulleObjCPlistFoundation" xlink:title="MulleObjCPlistFoundation">
<polygon fill="lightgrey" stroke="black" points="1501.5,-36 1296.5,-36 1296.5,0 1501.5,0 1501.5,-36"/>
<text text-anchor="middle" x="1399" y="-14.3" font-family="Times,serif" font-size="14.00">MulleObjCPlistFoundation</text>
</a>
</g>
</g>
<!-- MulleFoundationBase&#45;&gt;MulleObjCPlistFoundation -->
<g id="edge11" class="edge">
<title>MulleFoundationBase&#45;&gt;MulleObjCPlistFoundation</title>
<path fill="none" stroke="black" d="M1399,-71.7C1399,-63.98 1399,-54.71 1399,-46.11"/>
<polygon fill="black" stroke="black" points="1402.5,-46.1 1399,-36.1 1395.5,-46.1 1402.5,-46.1"/>
</g>
<!-- MulleObjCStandardFoundation -->
<g id="node15" class="node">
<title>MulleObjCStandardFoundation</title>
<g id="a_node15"><a xlink:href="https://github.com/MulleFoundation/MulleObjCStandardFoundation" xlink:title="MulleObjCStandardFoundation">
<polygon fill="lightgrey" stroke="black" points="1758.5,-36 1519.5,-36 1519.5,0 1758.5,0 1758.5,-36"/>
<text text-anchor="middle" x="1639" y="-14.3" font-family="Times,serif" font-size="14.00">MulleObjCStandardFoundation</text>
</a>
</g>
</g>
<!-- MulleFoundationBase&#45;&gt;MulleObjCStandardFoundation -->
<g id="edge12" class="edge">
<title>MulleFoundationBase&#45;&gt;MulleObjCStandardFoundation</title>
<path fill="none" stroke="black" d="M1457.4,-71.97C1491.52,-62.01 1534.75,-49.41 1570.47,-38.99"/>
<polygon fill="black" stroke="black" points="1571.71,-42.27 1580.33,-36.11 1569.75,-35.55 1571.71,-42.27"/>
</g>
<!-- MulleObjCTimeFoundation -->
<g id="node16" class="node">
<title>MulleObjCTimeFoundation</title>
<g id="a_node16"><a xlink:href="https://github.com/MulleFoundation/MulleObjCTimeFoundation" xlink:title="MulleObjCTimeFoundation">
<polygon fill="lightgrey" stroke="black" points="1985,-36 1777,-36 1777,0 1985,0 1985,-36"/>
<text text-anchor="middle" x="1881" y="-14.3" font-family="Times,serif" font-size="14.00">MulleObjCTimeFoundation</text>
</a>
</g>
</g>
<!-- MulleFoundationBase&#45;&gt;MulleObjCTimeFoundation -->
<g id="edge13" class="edge">
<title>MulleFoundationBase&#45;&gt;MulleObjCTimeFoundation</title>
<path fill="none" stroke="black" d="M1485.18,-73.4C1488.16,-72.92 1491.1,-72.45 1494,-72 1614.93,-53.22 1645.81,-53.03 1767,-36 1767.1,-35.99 1767.2,-35.97 1767.31,-35.96"/>
<polygon fill="black" stroke="black" points="1767.53,-39.46 1776.94,-34.59 1766.55,-32.53 1767.53,-39.46"/>
</g>
<!-- MulleObjCUnicodeFoundation -->
<g id="node17" class="node">
<title>MulleObjCUnicodeFoundation</title>
<g id="a_node17"><a xlink:href="https://github.com/MulleFoundation/MulleObjCUnicodeFoundation" xlink:title="MulleObjCUnicodeFoundation">
<polygon fill="lightgrey" stroke="black" points="2234.5,-36 2003.5,-36 2003.5,0 2234.5,0 2234.5,-36"/>
<text text-anchor="middle" x="2119" y="-14.3" font-family="Times,serif" font-size="14.00">MulleObjCUnicodeFoundation</text>
</a>
</g>
</g>
<!-- MulleFoundationBase&#45;&gt;MulleObjCUnicodeFoundation -->
<g id="edge14" class="edge">
<title>MulleFoundationBase&#45;&gt;MulleObjCUnicodeFoundation</title>
<path fill="none" stroke="black" d="M1485.15,-73.18C1488.13,-72.76 1491.09,-72.36 1494,-72 1711.84,-44.74 1770.68,-58.6 1993.22,-36.03"/>
<polygon fill="black" stroke="black" points="1993.67,-39.51 2003.26,-35 1992.95,-32.54 1993.67,-39.51"/>
</g>
<!-- MulleObjCUUIDFoundation -->
<g id="node18" class="node">
<title>MulleObjCUUIDFoundation</title>
<g id="a_node18"><a xlink:href="https://github.com/MulleFoundation/MulleObjCUUIDFoundation" xlink:title="MulleObjCUUIDFoundation">
<polygon fill="lightgrey" stroke="black" points="2465.5,-36 2252.5,-36 2252.5,0 2465.5,0 2465.5,-36"/>
<text text-anchor="middle" x="2359" y="-14.3" font-family="Times,serif" font-size="14.00">MulleObjCUUIDFoundation</text>
</a>
</g>
</g>
<!-- MulleFoundationBase&#45;&gt;MulleObjCUUIDFoundation -->
<g id="edge15" class="edge">
<title>MulleFoundationBase&#45;&gt;MulleObjCUUIDFoundation</title>
<path fill="none" stroke="black" d="M1485.14,-73.08C1488.13,-72.69 1491.09,-72.33 1494,-72 1822.21,-34.91 1910.07,-67.75 2241.83,-36.15"/>
<polygon fill="black" stroke="black" points="2242.61,-39.59 2252.23,-35.15 2241.94,-32.63 2242.61,-39.59"/>
</g>
<!-- MulleObjCValueFoundation -->
<g id="node19" class="node">
<title>MulleObjCValueFoundation</title>
<g id="a_node19"><a xlink:href="https://github.com/MulleFoundation/MulleObjCValueFoundation" xlink:title="MulleObjCValueFoundation">
<polygon fill="lightgrey" stroke="black" points="2695,-36 2483,-36 2483,0 2695,0 2695,-36"/>
<text text-anchor="middle" x="2589" y="-14.3" font-family="Times,serif" font-size="14.00">MulleObjCValueFoundation</text>
</a>
</g>
</g>
<!-- MulleFoundationBase&#45;&gt;MulleObjCValueFoundation -->
<g id="edge16" class="edge">
<title>MulleFoundationBase&#45;&gt;MulleObjCValueFoundation</title>
<path fill="none" stroke="black" d="M1485.14,-73.04C1488.12,-72.66 1491.08,-72.31 1494,-72 1924.52,-25.81 2038.84,-75.47 2472.87,-36.14"/>
<polygon fill="black" stroke="black" points="2473.22,-39.62 2482.85,-35.22 2472.58,-32.65 2473.22,-39.62"/>
</g>
<!-- zlib -->
<g id="node23" class="node">
<title>zlib</title>
<g id="a_node23"><a xlink:href="https://github.com/madler/zlib" xlink:title="zlib">
<polygon fill="lightgrey" stroke="black" points="2767,-36 2713,-36 2713,0 2767,0 2767,-36"/>
<text text-anchor="middle" x="2740" y="-14.3" font-family="Times,serif" font-size="14.00">zlib</text>
</a>
</g>
</g>
<!-- MulleZlib&#45;&gt;zlib -->
<g id="edge22" class="edge">
<title>MulleZlib&#45;&gt;zlib</title>
<path fill="none" stroke="black" d="M1588.62,-73.8C1591.43,-73.1 1594.24,-72.49 1597,-72 1836.08,-29.2 2448.32,-92.05 2702.9,-35.53"/>
<polygon fill="black" stroke="black" points="2703.96,-38.87 2712.91,-33.2 2702.37,-32.06 2703.96,-38.87"/>
</g>
<!-- MulleObjCJSMNFoundation&#45;&gt;jsmn.h -->
<g id="edge17" class="edge">
<title>MulleObjCJSMNFoundation&#45;&gt;jsmn.h</title>
<path fill="none" stroke="black" d="M2091,-143.7C2091,-135.98 2091,-126.71 2091,-118.11"/>
<polygon fill="black" stroke="black" points="2094.5,-118.1 2091,-108.1 2087.5,-118.1 2094.5,-118.1"/>
</g>
</g>
</svg>
