<?xml version="1.0" encoding="UTF-8" standalone="no"?>
<!DOCTYPE svg PUBLIC "-//W3C//DTD SVG 1.1//EN"
 "http://www.w3.org/Graphics/SVG/1.1/DTD/svg11.dtd">
<!-- Generated by graphviz version 2.43.0 (0)
 -->
<!-- Title: sourcetree Pages: 1 -->
<svg width="1744pt" height="260pt"
 viewBox="0.00 0.00 1744.00 260.00" xmlns="http://www.w3.org/2000/svg" xmlns:xlink="http://www.w3.org/1999/xlink">
<g id="graph0" class="graph" transform="scale(1 1) rotate(0) translate(4 256)">
<title>sourcetree</title>
<polygon fill="white" stroke="transparent" points="-4,4 -4,-256 1740,-256 1740,4 -4,4"/>
<!-- MulleWebClient -->
<g id="node1" class="node">
<title>MulleWebClient</title>
<polygon fill="yellow" stroke="black" points="1212,-252 1081,-252 1081,-216 1212,-216 1212,-252"/>
<text text-anchor="middle" x="1146.5" y="-230.3" font-family="Times,serif" font-size="14.00">MulleWebClient</text>
</g>
<!-- MulleCurl -->
<g id="node2" class="node">
<title>MulleCurl</title>
<polygon fill="lightgrey" stroke="black" points="703.5,-180 615.5,-180 615.5,-144 703.5,-144 703.5,-180"/>
<text text-anchor="middle" x="659.5" y="-158.3" font-family="Times,serif" font-size="14.00">MulleCurl</text>
</g>
<!-- MulleWebClient&#45;&gt;MulleCurl -->
<g id="edge16" class="edge">
<title>MulleWebClient&#45;&gt;MulleCurl</title>
<path fill="none" stroke="black" d="M1080.82,-223.56C983.7,-209.6 803.59,-183.71 713.6,-170.78"/>
<polygon fill="black" stroke="black" points="714.01,-167.3 703.61,-169.34 713.01,-174.23 714.01,-167.3"/>
</g>
<!-- MulleObjCHTTPFoundation -->
<g id="node9" class="node">
<title>MulleObjCHTTPFoundation</title>
<polygon fill="lightgrey" stroke="black" points="1141,-180 928,-180 928,-144 1141,-144 1141,-180"/>
<text text-anchor="middle" x="1034.5" y="-158.3" font-family="Times,serif" font-size="14.00">MulleObjCHTTPFoundation</text>
</g>
<!-- MulleWebClient&#45;&gt;MulleObjCHTTPFoundation -->
<g id="edge17" class="edge">
<title>MulleWebClient&#45;&gt;MulleObjCHTTPFoundation</title>
<path fill="none" stroke="black" d="M1119.1,-215.88C1104.59,-206.81 1086.58,-195.55 1070.91,-185.76"/>
<polygon fill="black" stroke="black" points="1072.34,-182.52 1062,-180.19 1068.63,-188.46 1072.34,-182.52"/>
</g>
<!-- MulleObjCInetFoundation -->
<g id="node11" class="node">
<title>MulleObjCInetFoundation</title>
<polygon fill="lightgrey" stroke="black" points="1360,-180 1159,-180 1159,-144 1360,-144 1360,-180"/>
<text text-anchor="middle" x="1259.5" y="-158.3" font-family="Times,serif" font-size="14.00">MulleObjCInetFoundation</text>
</g>
<!-- MulleWebClient&#45;&gt;MulleObjCInetFoundation -->
<g id="edge18" class="edge">
<title>MulleWebClient&#45;&gt;MulleObjCInetFoundation</title>
<path fill="none" stroke="black" d="M1174.14,-215.88C1188.92,-206.72 1207.29,-195.34 1223.2,-185.48"/>
<polygon fill="black" stroke="black" points="1225.09,-188.43 1231.75,-180.19 1221.41,-182.48 1225.09,-188.43"/>
</g>
<!-- MulleObjCJSMNFoundation -->
<g id="node14" class="node">
<title>MulleObjCJSMNFoundation</title>
<polygon fill="lightgrey" stroke="black" points="1631.5,-180 1417.5,-180 1417.5,-144 1631.5,-144 1631.5,-180"/>
<text text-anchor="middle" x="1524.5" y="-158.3" font-family="Times,serif" font-size="14.00">MulleObjCJSMNFoundation</text>
</g>
<!-- MulleWebClient&#45;&gt;MulleObjCJSMNFoundation -->
<g id="edge19" class="edge">
<title>MulleWebClient&#45;&gt;MulleObjCJSMNFoundation</title>
<path fill="none" stroke="black" d="M1212.34,-220.81C1270.29,-210.08 1355.59,-194.28 1422.38,-181.91"/>
<polygon fill="black" stroke="black" points="1423.32,-185.3 1432.51,-180.03 1422.04,-178.41 1423.32,-185.3"/>
</g>
<!-- craftinfo/curl -->
<g id="node3" class="node">
<title>craftinfo/curl</title>
<polygon fill="lightgrey" stroke="black" points="295.5,-108 185.5,-108 185.5,-72 295.5,-72 295.5,-108"/>
<text text-anchor="middle" x="240.5" y="-86.3" font-family="Times,serif" font-size="14.00">craftinfo/curl</text>
</g>
<!-- MulleCurl&#45;&gt;craftinfo/curl -->
<g id="edge1" class="edge">
<title>MulleCurl&#45;&gt;craftinfo/curl</title>
<path fill="none" stroke="black" d="M615.22,-156C549.62,-148.24 422.6,-131.86 305.42,-108.07"/>
<polygon fill="black" stroke="black" points="306.07,-104.63 295.57,-106.04 304.66,-111.48 306.07,-104.63"/>
</g>
<!-- craftinfo/openssl -->
<g id="node4" class="node">
<title>craftinfo/openssl</title>
<polygon fill="lightgrey" stroke="black" points="449.5,-108 313.5,-108 313.5,-72 449.5,-72 449.5,-108"/>
<text text-anchor="middle" x="381.5" y="-86.3" font-family="Times,serif" font-size="14.00">craftinfo/openssl</text>
</g>
<!-- MulleCurl&#45;&gt;craftinfo/openssl -->
<g id="edge2" class="edge">
<title>MulleCurl&#45;&gt;craftinfo/openssl</title>
<path fill="none" stroke="black" d="M615.45,-149.91C573.54,-139.35 509.56,-123.25 459.1,-110.54"/>
<polygon fill="black" stroke="black" points="459.75,-107.09 449.2,-108.05 458.04,-113.88 459.75,-107.09"/>
</g>
<!-- curl -->
<g id="node5" class="node">
<title>curl</title>
<polygon fill="lightgrey" stroke="black" points="521.5,-108 467.5,-108 467.5,-72 521.5,-72 521.5,-108"/>
<text text-anchor="middle" x="494.5" y="-86.3" font-family="Times,serif" font-size="14.00">curl</text>
</g>
<!-- MulleCurl&#45;&gt;curl -->
<g id="edge3" class="edge">
<title>MulleCurl&#45;&gt;curl</title>
<path fill="none" stroke="black" d="M616.27,-143.88C593.27,-134.63 564.35,-122.76 531.06,-108.15"/>
<polygon fill="black" stroke="black" points="532.12,-104.8 521.56,-103.96 529.29,-111.2 532.12,-104.8"/>
</g>
<!-- MulleObjCStandardFoundation -->
<g id="node6" class="node">
<title>MulleObjCStandardFoundation</title>
<polygon fill="lightgrey" stroke="black" points="779,-108 540,-108 540,-72 779,-72 779,-108"/>
<text text-anchor="middle" x="659.5" y="-86.3" font-family="Times,serif" font-size="14.00">MulleObjCStandardFoundation</text>
</g>
<!-- MulleCurl&#45;&gt;MulleObjCStandardFoundation -->
<g id="edge4" class="edge">
<title>MulleCurl&#45;&gt;MulleObjCStandardFoundation</title>
<path fill="none" stroke="black" d="M659.5,-143.7C659.5,-135.98 659.5,-126.71 659.5,-118.11"/>
<polygon fill="black" stroke="black" points="663,-118.1 659.5,-108.1 656,-118.1 663,-118.1"/>
</g>
<!-- MulleZlib -->
<g id="node7" class="node">
<title>MulleZlib</title>
<polygon fill="lightgrey" stroke="black" points="882,-108 797,-108 797,-72 882,-72 882,-108"/>
<text text-anchor="middle" x="839.5" y="-86.3" font-family="Times,serif" font-size="14.00">MulleZlib</text>
</g>
<!-- MulleCurl&#45;&gt;MulleZlib -->
<g id="edge5" class="edge">
<title>MulleCurl&#45;&gt;MulleZlib</title>
<path fill="none" stroke="black" d="M703.53,-143.88C728.84,-134.03 760.77,-121.62 787.33,-111.29"/>
<polygon fill="black" stroke="black" points="788.8,-114.47 796.85,-107.59 786.26,-107.95 788.8,-114.47"/>
</g>
<!-- openssl -->
<g id="node8" class="node">
<title>openssl</title>
<polygon fill="lightgrey" stroke="black" points="971,-108 900,-108 900,-72 971,-72 971,-108"/>
<text text-anchor="middle" x="935.5" y="-86.3" font-family="Times,serif" font-size="14.00">openssl</text>
</g>
<!-- MulleCurl&#45;&gt;openssl -->
<g id="edge6" class="edge">
<title>MulleCurl&#45;&gt;openssl</title>
<path fill="none" stroke="black" d="M703.82,-152.69C748.56,-143.89 819.74,-128.77 889.9,-107.96"/>
<polygon fill="black" stroke="black" points="891.22,-111.22 899.79,-104.99 889.2,-104.52 891.22,-111.22"/>
</g>
<!-- MulleObjCContainerFoundation -->
<g id="node17" class="node">
<title>MulleObjCContainerFoundation</title>
<polygon fill="lightgrey" stroke="black" points="243,-36 0,-36 0,0 243,0 243,-36"/>
<text text-anchor="middle" x="121.5" y="-14.3" font-family="Times,serif" font-size="14.00">MulleObjCContainerFoundation</text>
</g>
<!-- MulleObjCStandardFoundation&#45;&gt;MulleObjCContainerFoundation -->
<g id="edge12" class="edge">
<title>MulleObjCStandardFoundation&#45;&gt;MulleObjCContainerFoundation</title>
<path fill="none" stroke="black" d="M539.68,-73.2C536.59,-72.8 533.52,-72.4 530.5,-72 410.1,-56.27 377.68,-52.22 253.11,-36.08"/>
<polygon fill="black" stroke="black" points="253.55,-32.61 243.18,-34.79 252.65,-39.55 253.55,-32.61"/>
</g>
<!-- MulleObjCTimeFoundation -->
<g id="node18" class="node">
<title>MulleObjCTimeFoundation</title>
<polygon fill="lightgrey" stroke="black" points="469.5,-36 261.5,-36 261.5,0 469.5,0 469.5,-36"/>
<text text-anchor="middle" x="365.5" y="-14.3" font-family="Times,serif" font-size="14.00">MulleObjCTimeFoundation</text>
</g>
<!-- MulleObjCStandardFoundation&#45;&gt;MulleObjCTimeFoundation -->
<g id="edge13" class="edge">
<title>MulleObjCStandardFoundation&#45;&gt;MulleObjCTimeFoundation</title>
<path fill="none" stroke="black" d="M587.96,-71.97C545.37,-61.83 491.19,-48.93 446.96,-38.4"/>
<polygon fill="black" stroke="black" points="447.65,-34.96 437.11,-36.05 446.03,-41.77 447.65,-34.96"/>
</g>
<!-- MulleObjCValueFoundation -->
<g id="node19" class="node">
<title>MulleObjCValueFoundation</title>
<polygon fill="lightgrey" stroke="black" points="699.5,-36 487.5,-36 487.5,0 699.5,0 699.5,-36"/>
<text text-anchor="middle" x="593.5" y="-14.3" font-family="Times,serif" font-size="14.00">MulleObjCValueFoundation</text>
</g>
<!-- MulleObjCStandardFoundation&#45;&gt;MulleObjCValueFoundation -->
<g id="edge14" class="edge">
<title>MulleObjCStandardFoundation&#45;&gt;MulleObjCValueFoundation</title>
<path fill="none" stroke="black" d="M643.19,-71.7C635.19,-63.22 625.43,-52.86 616.68,-43.58"/>
<polygon fill="black" stroke="black" points="619.03,-40.98 609.63,-36.1 613.94,-45.78 619.03,-40.98"/>
</g>
<!-- mulle&#45;unicode -->
<g id="node20" class="node">
<title>mulle&#45;unicode</title>
<polygon fill="lightgrey" stroke="black" points="833.5,-36 717.5,-36 717.5,0 833.5,0 833.5,-36"/>
<text text-anchor="middle" x="775.5" y="-14.3" font-family="Times,serif" font-size="14.00">mulle&#45;unicode</text>
</g>
<!-- MulleObjCStandardFoundation&#45;&gt;mulle&#45;unicode -->
<g id="edge15" class="edge">
<title>MulleObjCStandardFoundation&#45;&gt;mulle&#45;unicode</title>
<path fill="none" stroke="black" d="M687.88,-71.88C703.04,-62.72 721.91,-51.34 738.24,-41.48"/>
<polygon fill="black" stroke="black" points="740.26,-44.35 747.01,-36.19 736.64,-38.36 740.26,-44.35"/>
</g>
<!-- craftinfo/zlib -->
<g id="node21" class="node">
<title>craftinfo/zlib</title>
<polygon fill="lightgrey" stroke="black" points="959,-36 852,-36 852,0 959,0 959,-36"/>
<text text-anchor="middle" x="905.5" y="-14.3" font-family="Times,serif" font-size="14.00">craftinfo/zlib</text>
</g>
<!-- MulleZlib&#45;&gt;craftinfo/zlib -->
<g id="edge20" class="edge">
<title>MulleZlib&#45;&gt;craftinfo/zlib</title>
<path fill="none" stroke="black" d="M855.81,-71.7C863.81,-63.22 873.57,-52.86 882.32,-43.58"/>
<polygon fill="black" stroke="black" points="885.06,-45.78 889.37,-36.1 879.97,-40.98 885.06,-45.78"/>
</g>
<!-- zlib -->
<g id="node22" class="node">
<title>zlib</title>
<polygon fill="lightgrey" stroke="black" points="1031.5,-36 977.5,-36 977.5,0 1031.5,0 1031.5,-36"/>
<text text-anchor="middle" x="1004.5" y="-14.3" font-family="Times,serif" font-size="14.00">zlib</text>
</g>
<!-- MulleZlib&#45;&gt;zlib -->
<g id="edge21" class="edge">
<title>MulleZlib&#45;&gt;zlib</title>
<path fill="none" stroke="black" d="M881.76,-71.98C906.78,-61.77 939.06,-48.41 967.5,-36 967.7,-35.91 967.91,-35.82 968.11,-35.73"/>
<polygon fill="black" stroke="black" points="969.77,-38.83 977.48,-31.56 966.92,-32.43 969.77,-38.83"/>
</g>
<!-- mulle&#45;http -->
<g id="node10" class="node">
<title>mulle&#45;http</title>
<polygon fill="lightgrey" stroke="black" points="1080,-108 989,-108 989,-72 1080,-72 1080,-108"/>
<text text-anchor="middle" x="1034.5" y="-86.3" font-family="Times,serif" font-size="14.00">mulle&#45;http</text>
</g>
<!-- MulleObjCHTTPFoundation&#45;&gt;mulle&#45;http -->
<g id="edge7" class="edge">
<title>MulleObjCHTTPFoundation&#45;&gt;mulle&#45;http</title>
<path fill="none" stroke="black" d="M1034.5,-143.7C1034.5,-135.98 1034.5,-126.71 1034.5,-118.11"/>
<polygon fill="black" stroke="black" points="1038,-118.1 1034.5,-108.1 1031,-118.1 1038,-118.1"/>
</g>
<!-- MulleObjCLockFoundation -->
<g id="node12" class="node">
<title>MulleObjCLockFoundation</title>
<polygon fill="lightgrey" stroke="black" points="1304.5,-108 1098.5,-108 1098.5,-72 1304.5,-72 1304.5,-108"/>
<text text-anchor="middle" x="1201.5" y="-86.3" font-family="Times,serif" font-size="14.00">MulleObjCLockFoundation</text>
</g>
<!-- MulleObjCInetFoundation&#45;&gt;MulleObjCLockFoundation -->
<g id="edge8" class="edge">
<title>MulleObjCInetFoundation&#45;&gt;MulleObjCLockFoundation</title>
<path fill="none" stroke="black" d="M1245.16,-143.7C1238.21,-135.3 1229.73,-125.07 1222.1,-115.86"/>
<polygon fill="black" stroke="black" points="1224.75,-113.57 1215.67,-108.1 1219.36,-118.04 1224.75,-113.57"/>
</g>
<!-- mulle&#45;url -->
<g id="node13" class="node">
<title>mulle&#45;url</title>
<polygon fill="lightgrey" stroke="black" points="1404,-108 1323,-108 1323,-72 1404,-72 1404,-108"/>
<text text-anchor="middle" x="1363.5" y="-86.3" font-family="Times,serif" font-size="14.00">mulle&#45;url</text>
</g>
<!-- MulleObjCInetFoundation&#45;&gt;mulle&#45;url -->
<g id="edge9" class="edge">
<title>MulleObjCInetFoundation&#45;&gt;mulle&#45;url</title>
<path fill="none" stroke="black" d="M1284.94,-143.88C1298.29,-134.89 1314.82,-123.76 1329.28,-114.03"/>
<polygon fill="black" stroke="black" points="1331.62,-116.68 1337.96,-108.19 1327.71,-110.87 1331.62,-116.68"/>
</g>
<!-- MulleObjCPlistFoundation -->
<g id="node15" class="node">
<title>MulleObjCPlistFoundation</title>
<polygon fill="lightgrey" stroke="black" points="1627,-108 1422,-108 1422,-72 1627,-72 1627,-108"/>
<text text-anchor="middle" x="1524.5" y="-86.3" font-family="Times,serif" font-size="14.00">MulleObjCPlistFoundation</text>
</g>
<!-- MulleObjCJSMNFoundation&#45;&gt;MulleObjCPlistFoundation -->
<g id="edge10" class="edge">
<title>MulleObjCJSMNFoundation&#45;&gt;MulleObjCPlistFoundation</title>
<path fill="none" stroke="black" d="M1524.5,-143.7C1524.5,-135.98 1524.5,-126.71 1524.5,-118.11"/>
<polygon fill="black" stroke="black" points="1528,-118.1 1524.5,-108.1 1521,-118.1 1528,-118.1"/>
</g>
<!-- src/jsmn.h -->
<g id="node16" class="node">
<title>src/jsmn.h</title>
<polygon fill="lightgrey" stroke="black" points="1736,-108 1645,-108 1645,-72 1736,-72 1736,-108"/>
<text text-anchor="middle" x="1690.5" y="-86.3" font-family="Times,serif" font-size="14.00">src/jsmn.h</text>
</g>
<!-- MulleObjCJSMNFoundation&#45;&gt;src/jsmn.h -->
<g id="edge11" class="edge">
<title>MulleObjCJSMNFoundation&#45;&gt;src/jsmn.h</title>
<path fill="none" stroke="black" d="M1565.11,-143.88C1587.9,-134.26 1616.53,-122.19 1640.67,-112.01"/>
<polygon fill="black" stroke="black" points="1642.17,-115.18 1650.02,-108.07 1639.45,-108.73 1642.17,-115.18"/>
</g>
</g>
</svg>
